<svg xmlns="http://www.w3.org/2000/svg" width="50" height="50" viewBox="0 0 50 50" fill="none">
  <path d="M18.9182 15.3078V19.3495C18.9182 20.731 17.7982 21.851 16.4166 21.851C15.035 21.851 13.915 20.731 13.915 19.3495V15.3078C13.915 9.22611 18.8134 4.2669 24.872 4.16833L25.056 4.16693C31.1379 4.16693 36.0969 9.06532 36.1954 15.1239L36.1969 15.3078V19.3495C36.1969 20.731 35.077 21.851 33.6954 21.851C32.3138 21.851 31.1938 20.731 31.1938 19.3495V15.3078C31.1938 11.9573 28.4952 9.22516 25.1574 9.17085L25.0561 9.17003C21.6716 9.17003 18.9182 11.9234 18.9182 15.3078Z" fill="#FFD666"/>
  <g style="mix-blend-mode:overlay" filter="url(#filter0_i_11_1461)">
    <path d="M18.9182 15.3078V21.851H13.915V15.3078C13.915 9.22611 18.8134 4.2669 24.872 4.16833L25.056 4.16693C31.1379 4.16693 36.0969 9.06532 36.1954 15.1239L36.1969 15.3078V21.851H31.1938V15.3078C31.1938 11.9573 28.4952 9.22516 25.1574 9.17085L25.0561 9.17003C21.6716 9.17003 18.9182 11.9234 18.9182 15.3078Z" fill="white" fill-opacity="0.08"/>
  </g>
  <path fill-rule="evenodd" clip-rule="evenodd" d="M41.2591 35.4833C41.2591 41.201 36.6241 45.836 30.9065 45.836H19.2071C13.4895 45.836 8.85449 41.201 8.85449 35.4833V24.9362C8.85449 22.5553 10.7845 20.6253 13.1654 20.6253H25.0563L25.0568 20.6256L36.9483 20.6253C39.3291 20.6253 41.2591 22.5553 41.2591 24.9362V35.4833ZM23.1831 34.8243C23.1831 35.8592 24.0221 36.6982 25.057 36.6982H25.782C26.4166 36.6982 26.931 36.1838 26.931 35.5492C26.931 35.0758 27.2279 34.6611 27.6384 34.4255C28.0688 34.1785 28.4658 33.8695 28.8124 33.505C29.7994 32.463 30.3016 31.1014 30.2266 29.6671C30.0867 26.9711 27.8629 24.8173 25.162 24.7624C25.1508 24.7622 25.1397 24.7622 25.1286 24.7622L25.0587 24.763C25.0582 24.763 25.0578 24.7629 25.0575 24.7627C25.0571 24.7625 25.0567 24.7624 25.0563 24.7624C22.6385 24.7627 20.2896 26.6265 19.9274 29.2198C19.8904 29.5033 20.1185 29.742 20.4044 29.742H23.6355C23.6382 29.742 23.6404 29.7398 23.6404 29.7371C23.654 29.6395 23.6772 29.5454 23.709 29.4557L23.7197 29.4264C23.7249 29.4126 23.7303 29.399 23.736 29.3854L23.7503 29.3522C23.7836 29.2771 23.8233 29.2057 23.8684 29.1385C23.9278 29.0501 23.9968 28.9689 24.0739 28.8964C24.1249 28.8485 24.1794 28.8043 24.2371 28.7643L24.2736 28.7398L24.3051 28.72L24.3278 28.7064L24.353 28.6919C24.3661 28.6846 24.3794 28.6774 24.3929 28.6704C24.4166 28.6581 24.4406 28.6465 24.465 28.6356L24.5102 28.6162C24.5335 28.6067 24.5571 28.5978 24.581 28.5895L24.612 28.5792C24.6515 28.5665 24.6918 28.5554 24.7327 28.5461C24.7534 28.5414 24.7742 28.5371 24.7951 28.5333L24.825 28.5282L24.8551 28.5237L24.89 28.5193C24.912 28.5168 24.9341 28.5148 24.9564 28.5133L24.9885 28.5115L25.0209 28.5104L25.0563 28.51C25.0567 28.51 25.0569 28.5102 25.0569 28.5105C25.0569 28.5109 25.0572 28.5111 25.0575 28.5111L25.087 28.5102C25.8191 28.5253 26.4463 29.1299 26.4837 29.8621C26.5037 30.2593 26.3663 30.6366 26.0939 30.924L26.0688 30.9496L26.0377 30.9797C25.7795 31.2226 25.45 31.3588 25.0964 31.3682L25.0573 31.3687L24.7051 31.3686C23.8645 31.3686 23.1831 32.0501 23.1831 32.8907V34.8243ZM25.0569 38.008C25.0569 38.0081 25.057 38.008 25.0569 38.008C24.0373 38.008 23.2105 38.8344 23.2105 39.8539C23.2105 40.8733 24.0369 41.6999 25.0565 41.6999C25.0565 41.6999 25.0565 41.6999 25.0565 41.6999L25.057 41.6998L25.0901 41.6995C26.0941 41.6816 26.9025 40.8622 26.9025 39.8538C26.9025 38.8345 26.0762 38.0082 25.0569 38.008Z" fill="#C4161C"/>
  <g style="mix-blend-mode:overlay" filter="url(#filter1_i_11_1461)">
    <path fill-rule="evenodd" clip-rule="evenodd" d="M41.2591 35.4833C41.2591 41.201 36.6241 45.836 30.9065 45.836H19.2071C13.4895 45.836 8.85449 41.201 8.85449 35.4833V24.9362C8.85449 22.5553 10.7845 20.6253 13.1654 20.6253H25.0563L25.0568 20.6256L36.9483 20.6253C39.3291 20.6253 41.2591 22.5553 41.2591 24.9362V35.4833ZM23.1831 34.8243C23.1831 35.8592 24.0221 36.6982 25.057 36.6982H25.782C26.4166 36.6982 26.931 36.1838 26.931 35.5492C26.931 35.0758 27.2279 34.6611 27.6384 34.4255C28.0688 34.1785 28.4658 33.8695 28.8124 33.505C29.7994 32.463 30.3016 31.1014 30.2266 29.6671C30.0867 26.9711 27.8629 24.8173 25.162 24.7624C25.1508 24.7622 25.1397 24.7622 25.1286 24.7622L25.0587 24.763C25.0582 24.763 25.0578 24.7629 25.0575 24.7627C25.0571 24.7625 25.0567 24.7624 25.0563 24.7624C22.6385 24.7627 20.2896 26.6265 19.9274 29.2198C19.8904 29.5033 20.1185 29.742 20.4044 29.742H23.6355C23.6382 29.742 23.6404 29.7398 23.6404 29.7371C23.654 29.6395 23.6772 29.5454 23.709 29.4557L23.7197 29.4264C23.7249 29.4126 23.7303 29.399 23.736 29.3854L23.7503 29.3522C23.7836 29.2771 23.8233 29.2057 23.8684 29.1385C23.9278 29.0501 23.9968 28.9689 24.0739 28.8964C24.1249 28.8485 24.1794 28.8043 24.2371 28.7643L24.2736 28.7398L24.3051 28.72L24.3278 28.7064L24.353 28.6919C24.3661 28.6846 24.3794 28.6774 24.3929 28.6704C24.4166 28.6581 24.4406 28.6465 24.465 28.6356L24.5102 28.6162C24.5335 28.6067 24.5571 28.5978 24.581 28.5895L24.612 28.5792C24.6515 28.5665 24.6918 28.5554 24.7327 28.5461C24.7534 28.5414 24.7742 28.5371 24.7951 28.5333L24.825 28.5282L24.8551 28.5237L24.89 28.5193C24.912 28.5168 24.9341 28.5148 24.9564 28.5133L24.9885 28.5115L25.0209 28.5104L25.0563 28.51C25.0567 28.51 25.0569 28.5102 25.0569 28.5105C25.0569 28.5109 25.0572 28.5111 25.0575 28.5111L25.087 28.5102C25.8191 28.5253 26.4463 29.1299 26.4837 29.8621C26.5037 30.2593 26.3663 30.6366 26.0939 30.924L26.0688 30.9496L26.0377 30.9797C25.7795 31.2226 25.45 31.3588 25.0964 31.3682L25.0573 31.3687L24.7051 31.3686C23.8645 31.3686 23.1831 32.0501 23.1831 32.8907V34.8243ZM25.0569 38.008C25.0569 38.0081 25.057 38.008 25.0569 38.008C24.0373 38.008 23.2105 38.8344 23.2105 39.8539C23.2105 40.8733 24.0369 41.6999 25.0565 41.6999C25.0565 41.6999 25.0565 41.6999 25.0565 41.6999L25.057 41.6998L25.0901 41.6995C26.0941 41.6816 26.9025 40.8622 26.9025 39.8538C26.9025 38.8345 26.0762 38.0082 25.0569 38.008Z" fill="white" fill-opacity="0.08"/>
  </g>
  <path fill-rule="evenodd" clip-rule="evenodd" d="M25.0569 36.6907C24.022 36.6907 23.183 35.8517 23.183 34.8167V32.8831C23.183 32.0425 23.8644 31.3611 24.705 31.3611H25.0568C25.0569 31.3611 25.057 31.3611 25.057 31.3611C25.0571 31.3612 25.0572 31.3612 25.0572 31.3612L25.0963 31.3607C25.4499 31.3513 25.7794 31.2151 26.0376 30.9722L26.0687 30.9421L26.0938 30.9165C26.3662 30.6291 26.5036 30.2517 26.4836 29.8545C26.4462 29.1224 25.819 28.5178 25.0869 28.5027L25.0574 28.5036C25.0571 28.5036 25.0568 28.5034 25.0568 28.503C25.0568 28.5027 25.0566 28.5024 25.0562 28.5024L25.0208 28.5028L24.9884 28.504L24.9563 28.5058C24.934 28.5073 24.9119 28.5093 24.8899 28.5118L24.855 28.5162L24.8249 28.5207L24.795 28.5258C24.7741 28.5296 24.7533 28.5339 24.7326 28.5386C24.6917 28.5479 24.6514 28.5589 24.6119 28.5716L24.5809 28.582C24.557 28.5903 24.5334 28.5992 24.5101 28.6087L24.4646 28.6282L24.4754 28.6234C24.4474 28.6357 24.4199 28.6489 24.3928 28.6629C24.3793 28.6699 24.366 28.677 24.3529 28.6844L24.3277 28.6988L24.305 28.7124L24.2735 28.7323L24.237 28.7568C24.1793 28.7968 24.1248 28.8409 24.0738 28.8889C23.9967 28.9614 23.9277 29.0425 23.8683 29.131C23.8232 29.1982 23.7835 29.2696 23.7501 29.3447L23.7358 29.3779C23.7302 29.3915 23.7248 29.4051 23.7196 29.4189L23.7089 29.4482C23.6771 29.5379 23.6539 29.632 23.6403 29.7296C23.6403 29.7323 23.6381 29.7344 23.6354 29.7344H20.4043C20.1184 29.7344 19.8903 29.4958 19.9273 29.2123C20.2895 26.619 22.6384 24.7552 25.0562 24.7549C25.0566 24.7549 25.057 24.755 25.0574 24.7552C25.0577 24.7554 25.0581 24.7555 25.0585 24.7555L25.1285 24.7547C25.1396 24.7547 25.1507 24.7547 25.1619 24.7549C27.8628 24.8098 30.0866 26.9636 30.2265 29.6596C30.3015 31.0939 29.7993 32.4555 28.8123 33.4975C28.4656 33.862 28.0687 34.1709 27.6383 34.418C27.2278 34.6536 26.9309 35.0683 26.9309 35.5417C26.9309 36.1763 26.4165 36.6907 25.7819 36.6907H25.0569ZM25.0568 38.0005C25.0568 38.0004 25.0569 38.0003 25.0569 38.0003C26.0762 38.0006 26.9024 38.827 26.9024 39.8463C26.9024 40.8546 26.094 41.6741 25.09 41.692L25.0569 41.6923C25.0569 41.6923 25.0568 41.6923 25.0568 41.6922C25.0568 41.6922 25.0567 41.6921 25.0567 41.6922L25.0565 41.6924C25.0565 41.6924 25.0564 41.6924 25.0564 41.6924C24.0368 41.6924 23.2104 40.8658 23.2104 39.8464C23.2104 38.8269 24.0367 38.0004 25.0564 38.0003C25.0564 38.0003 25.0565 38.0004 25.0565 38.0004L25.0566 38.0005C25.0567 38.0006 25.0568 38.0006 25.0568 38.0005Z" fill="white"/>
  <defs>
    <filter id="filter0_i_11_1461" x="11.915" y="2.16693" width="24.2822" height="19.6841" filterUnits="userSpaceOnUse" color-interpolation-filters="sRGB">
      <feFlood flood-opacity="0" result="BackgroundImageFix"/>
      <feBlend mode="normal" in="SourceGraphic" in2="BackgroundImageFix" result="shape"/>
      <feColorMatrix in="SourceAlpha" type="matrix" values="0 0 0 0 0 0 0 0 0 0 0 0 0 0 0 0 0 0 127 0" result="hardAlpha"/>
      <feOffset dx="-2" dy="-2"/>
      <feGaussianBlur stdDeviation="2"/>
      <feComposite in2="hardAlpha" operator="arithmetic" k2="-1" k3="1"/>
      <feColorMatrix type="matrix" values="0 0 0 0 0 0 0 0 0 0 0 0 0 0 0 0 0 0 0.4 0"/>
      <feBlend mode="normal" in2="shape" result="effect1_innerShadow_11_1461"/>
    </filter>
    <filter id="filter1_i_11_1461" x="6.85449" y="18.6253" width="34.4043" height="27.2108" filterUnits="userSpaceOnUse" color-interpolation-filters="sRGB">
      <feFlood flood-opacity="0" result="BackgroundImageFix"/>
      <feBlend mode="normal" in="SourceGraphic" in2="BackgroundImageFix" result="shape"/>
      <feColorMatrix in="SourceAlpha" type="matrix" values="0 0 0 0 0 0 0 0 0 0 0 0 0 0 0 0 0 0 127 0" result="hardAlpha"/>
      <feOffset dx="-2" dy="-2"/>
      <feGaussianBlur stdDeviation="2"/>
      <feComposite in2="hardAlpha" operator="arithmetic" k2="-1" k3="1"/>
      <feColorMatrix type="matrix" values="0 0 0 0 0 0 0 0 0 0 0 0 0 0 0 0 0 0 0.24 0"/>
      <feBlend mode="normal" in2="shape" result="effect1_innerShadow_11_1461"/>
    </filter>
  </defs>
</svg>
