<svg xmlns="http://www.w3.org/2000/svg" width="14" height="15" viewBox="0 0 14 15" fill="none">
<path d="M7 2.83105C5.9974 2.83105 5.10417 3.05436 4.32031 3.50098C3.54557 3.93848 2.88932 4.42611 2.35156 4.96387C1.8138 5.50163 1.40365 6.00293 1.12109 6.46777C0.829427 6.93262 0.669922 7.18783 0.642578 7.2334C0.624349 7.26986 0.610677 7.31087 0.601562 7.35645C0.592448 7.40202 0.587891 7.45215 0.587891 7.50684C0.587891 7.55241 0.592448 7.59798 0.601562 7.64355C0.610677 7.68913 0.628906 7.7347 0.65625 7.78027L0.642578 7.7666C0.669922 7.81217 0.829427 8.06738 1.12109 8.53223C1.40365 8.99707 1.8138 9.49837 2.35156 10.0361C2.88932 10.5739 3.54557 11.0661 4.32031 11.5127C5.10417 11.9502 5.9974 12.1689 7 12.1689C8.0026 12.1689 8.89583 11.9502 9.67969 11.5127C10.4544 11.0661 11.1107 10.5739 11.6484 10.0361C12.1862 9.49837 12.5964 8.99707 12.8789 8.53223C13.1706 8.06738 13.3301 7.81217 13.3574 7.7666C13.3757 7.73014 13.3893 7.68913 13.3984 7.64355C13.4076 7.59798 13.4121 7.55241 13.4121 7.50684C13.4121 7.45215 13.4076 7.40202 13.3984 7.35645C13.3893 7.31087 13.3711 7.26986 13.3438 7.2334H13.3574C13.3301 7.18783 13.1706 6.93262 12.8789 6.46777C12.5964 6.00293 12.1862 5.50163 11.6484 4.96387C11.1107 4.42611 10.4544 3.93848 9.67969 3.50098C8.89583 3.05436 8.0026 2.83105 7 2.83105ZM1.8457 7.50684C1.97331 7.28809 2.18294 6.98275 2.47461 6.59082C2.77539 6.19889 3.14453 5.81152 3.58203 5.42871C4.01953 5.0459 4.52539 4.71322 5.09961 4.43066C5.67383 4.14811 6.30729 4.00684 7 4.00684C7.69271 4.00684 8.32617 4.14811 8.90039 4.43066C9.47461 4.71322 9.98047 5.0459 10.418 5.42871C10.8555 5.81152 11.2246 6.19889 11.5254 6.59082C11.8171 6.98275 12.0267 7.28809 12.1543 7.50684C12.0267 7.71647 11.8171 8.01725 11.5254 8.40918C11.2246 8.80111 10.8555 9.18848 10.418 9.57129C9.98047 9.9541 9.47461 10.2913 8.90039 10.583C8.32617 10.8656 7.69271 11.0068 7 11.0068C6.30729 11.0068 5.67383 10.8656 5.09961 10.583C4.52539 10.2913 4.01953 9.9541 3.58203 9.57129C3.14453 9.18848 2.77539 8.80111 2.47461 8.40918C2.18294 8.01725 1.97331 7.71647 1.8457 7.50684ZM7 5.45605C6.4349 5.45605 5.9541 5.65658 5.55762 6.05762C5.16113 6.45866 4.96289 6.94173 4.96289 7.50684C4.96289 8.07194 5.16113 8.55273 5.55762 8.94922C5.9541 9.3457 6.4349 9.54395 7 9.54395C7.5651 9.54395 8.0459 9.3457 8.44238 8.94922C8.83887 8.55273 9.03711 8.07194 9.03711 7.50684C9.03711 6.94173 8.83887 6.45866 8.44238 6.05762C8.0459 5.65658 7.5651 5.45605 7 5.45605ZM7 8.38184C6.75391 8.38184 6.54655 8.29525 6.37793 8.12207C6.20931 7.94889 6.125 7.74381 6.125 7.50684C6.125 7.26074 6.20931 7.05339 6.37793 6.88477C6.54655 6.71615 6.75391 6.63184 7 6.63184C7.24609 6.63184 7.45345 6.71615 7.62207 6.88477C7.79069 7.05339 7.875 7.26074 7.875 7.50684C7.875 7.74381 7.78841 7.94889 7.61523 8.12207C7.44206 8.29525 7.23698 8.38184 7 8.38184Z" fill="#637381"/>
</svg>
