<svg xmlns="http://www.w3.org/2000/svg" width="96" height="96" viewBox="0 0 96 96" fill="none">
<path d="M9.37313 46.4622C10.0529 44.0825 32.5755 55.4408 37.7905 61.8859C37.7905 61.8859 42.1623 85.6857 38.7916 87.8099C36.8118 88.5287 28.6999 76.7603 26.7905 73.8859C26.5464 73.5185 25.4927 71.779 25.1835 71.5086C15.2905 57.3859 8.70119 48.8145 9.37313 46.4622Z" fill="#881111"/>
<path d="M85.5588 14.0765C83.559 12.0765 41.2241 53.681 37.4997 61.5C37.4997 61.5 33.1344 87.1556 38.5 88C41.4028 88 49.9997 72.5 51.9997 69C62.4997 53 87.5355 16.0535 85.5588 14.0765Z" fill="#C4161C"/>
</svg>
